<svg xmlns="http://www.w3.org/2000/svg" xmlns:xlink="http://www.w3.org/1999/xlink" width="512" zoomAndPan="magnify" viewBox="0 0 384 383.999986" height="512" preserveAspectRatio="xMidYMid meet" version="1.0"><rect x="-38.4" width="460.8" fill="#ffffff" y="-38.399999" height="460.799983" fill-opacity="1"/><rect x="-38.4" width="460.8" fill="#ffffff" y="-38.399999" height="460.799983" fill-opacity="1"/><path fill="#131f22" d="M 102.835938 144.238281 C 106.546875 149.242188 113.671875 163.429688 117.035156 169.296875 C 120.667969 177.933594 131.195312 191.496094 134.203125 199.773438 C 150.457031 244.488281 187.117188 259.214844 226.402344 229.257812 C 226.449219 244.359375 226.566406 259.738281 226.421875 274.855469 C 226.398438 277.429688 226.277344 277.613281 224.808594 278.933594 C 200.292969 290.257812 171.277344 288.757812 147.171875 277.046875 C 124.042969 265.933594 106.28125 246.078125 97.808594 221.851562 C 88.976562 196.355469 90.789062 168.378906 102.835938 144.238281 Z M 102.835938 144.238281 " fill-opacity="1" fill-rule="nonzero"/><path fill="#131f22" d="M 196.898438 167.480469 C 224.949219 166.5 257.640625 167.332031 286.046875 167.347656 L 286.175781 229.804688 C 286.179688 239.171875 286.15625 248.675781 286.167969 258.03125 C 286.179688 271.941406 283.035156 280.363281 268.871094 284.367188 C 267.976562 284.464844 267.078125 284.519531 266.179688 284.53125 C 241.902344 284.914062 243.367188 261.261719 243.695312 244.179688 C 243.914062 232.800781 243.691406 221.082031 243.703125 209.6875 C 230.910156 209.507812 200.144531 212.25 189.855469 206.308594 C 173.542969 196.886719 175.457031 172.3125 196.898438 167.480469 Z M 196.898438 167.480469 " fill-opacity="1" fill-rule="nonzero"/><path fill="#131f22" d="M 180.65625 89.980469 C 181.535156 89.882812 182.410156 89.816406 183.292969 89.785156 C 199.429688 89.234375 216.5 89.414062 232.714844 89.535156 C 245 89.625 266.160156 86.867188 274.953125 95.414062 C 286.078125 106.226562 281.433594 127.589844 265.625 130.820312 C 257.5625 132.46875 246.554688 131.714844 238.128906 131.703125 L 192.59375 131.621094 C 169.816406 131.324219 153.617188 141.535156 142.847656 161.289062 C 135.003906 148.421875 127.050781 133.585938 119.636719 120.320312 C 134.167969 103.128906 158.503906 92.472656 180.65625 89.980469 Z M 180.65625 89.980469 " fill-opacity="1" fill-rule="nonzero"/></svg>